<svg width="28" height="9" viewBox="0 0 28 9" fill="none" xmlns="http://www.w3.org/2000/svg">
<path d="M0.792003 8.64C0.552003 8.64 0.360003 8.576 0.216003 8.448C0.0720029 8.32 2.95043e-06 8.144 2.95043e-06 7.92V2.976C2.95043e-06 2.048 0.264003 1.32 0.792003 0.792004C1.32 0.264004 2.048 3.8147e-06 2.976 3.8147e-06C3.424 3.8147e-06 3.844 0.112004 4.236 0.336004C4.636 0.552004 4.98 0.864004 5.268 1.272C5.548 0.856004 5.884 0.540004 6.276 0.324004C6.676 0.108004 7.108 3.8147e-06 7.572 3.8147e-06C8.5 3.8147e-06 9.228 0.264004 9.756 0.792004C10.284 1.32 10.548 2.048 10.548 2.976V7.92C10.548 8.136 10.472 8.312 10.32 8.448C10.176 8.576 9.984 8.64 9.744 8.64C9.504 8.64 9.312 8.576 9.168 8.448C9.024 8.32 8.952 8.144 8.952 7.92V2.976C8.952 2.368 8.84 1.932 8.616 1.668C8.392 1.396 8.024 1.26 7.512 1.26C7.048 1.26 6.688 1.408 6.432 1.704C6.184 2 6.06 2.424 6.06 2.976V7.92C6.06 8.144 5.988 8.32 5.844 8.448C5.7 8.576 5.508 8.64 5.268 8.64C5.028 8.64 4.836 8.576 4.692 8.448C4.556 8.32 4.488 8.144 4.488 7.92V2.976C4.488 2.44 4.36 2.02 4.104 1.716C3.848 1.412 3.492 1.26 3.036 1.26C2.524 1.26 2.156 1.396 1.932 1.668C1.708 1.932 1.596 2.368 1.596 2.976V7.92C1.596 8.136 1.52 8.312 1.368 8.448C1.224 8.576 1.032 8.64 0.792003 8.64ZM12.6265 8.628C12.3865 8.628 12.1945 8.564 12.0505 8.436C11.9065 8.308 11.8345 8.132 11.8345 7.908V3.708C11.8345 2.548 12.1665 1.64 12.8305 0.984004C13.4945 0.328004 14.4185 3.8147e-06 15.6025 3.8147e-06C16.3785 3.8147e-06 17.0505 0.148004 17.6185 0.444004C18.1865 0.740004 18.6185 1.168 18.9145 1.728C19.2185 2.288 19.3705 2.948 19.3705 3.708V7.908C19.3705 8.132 19.2985 8.308 19.1545 8.436C19.0105 8.564 18.8185 8.628 18.5785 8.628C18.3385 8.628 18.1425 8.564 17.9905 8.436C17.8465 8.3 17.7745 8.124 17.7745 7.908V5.952H13.4305V7.908C13.4305 8.124 13.3545 8.3 13.2025 8.436C13.0585 8.564 12.8665 8.628 12.6265 8.628ZM17.7745 4.716V3.672C17.7745 2.872 17.5905 2.272 17.2225 1.872C16.8625 1.464 16.3225 1.26 15.6025 1.26C14.1545 1.26 13.4305 2.064 13.4305 3.672V4.716H17.7745ZM22.5802 8.52C21.9722 8.52 21.5002 8.36 21.1642 8.04C20.8282 7.72 20.6602 7.272 20.6602 6.696V0.720004C20.6602 0.496004 20.7322 0.320004 20.8762 0.192004C21.0202 0.0640039 21.2122 3.8147e-06 21.4522 3.8147e-06C21.6922 3.8147e-06 21.8842 0.0680039 22.0282 0.204004C22.1802 0.332004 22.2562 0.504004 22.2562 0.720004V6.696C22.2562 6.88 22.3002 7.024 22.3882 7.128C22.4842 7.232 22.6122 7.284 22.7722 7.284H26.6122C26.8522 7.284 27.0362 7.34 27.1642 7.452C27.2922 7.556 27.3562 7.708 27.3562 7.908C27.3562 8.1 27.2882 8.252 27.1522 8.364C27.0242 8.468 26.8442 8.52 26.6122 8.52H22.5802Z" fill="white"/>
</svg>
