<svg width="22" height="9" viewBox="0 0 22 9" fill="none" xmlns="http://www.w3.org/2000/svg">
<path d="M0.792 8.64C0.552 8.64 0.36 8.576 0.216 8.448C0.072 8.32 0 8.144 0 7.92V2.976C0 2.048 0.264 1.32 0.792 0.792C1.32 0.264 2.048 0 2.976 0C3.424 0 3.844 0.112 4.236 0.336C4.636 0.552 4.98 0.864 5.268 1.272C5.548 0.856 5.884 0.54 6.276 0.324C6.676 0.108 7.108 0 7.572 0C8.5 0 9.228 0.264 9.756 0.792C10.284 1.32 10.548 2.048 10.548 2.976V7.92C10.548 8.136 10.472 8.312 10.32 8.448C10.176 8.576 9.984 8.64 9.744 8.64C9.504 8.64 9.312 8.576 9.168 8.448C9.024 8.32 8.952 8.144 8.952 7.92V2.976C8.952 2.368 8.84 1.932 8.616 1.668C8.392 1.396 8.024 1.26 7.512 1.26C7.048 1.26 6.688 1.408 6.432 1.704C6.184 2 6.06 2.424 6.06 2.976V7.92C6.06 8.144 5.988 8.32 5.844 8.448C5.7 8.576 5.508 8.64 5.268 8.64C5.028 8.64 4.836 8.576 4.692 8.448C4.556 8.32 4.488 8.144 4.488 7.92V2.976C4.488 2.44 4.36 2.02 4.104 1.716C3.848 1.412 3.492 1.26 3.036 1.26C2.524 1.26 2.156 1.396 1.932 1.668C1.708 1.932 1.596 2.368 1.596 2.976V7.92C1.596 8.136 1.52 8.312 1.368 8.448C1.224 8.576 1.032 8.64 0.792 8.64Z" fill="white"/>
<path d="M9.732 8.628C9.492 8.628 9.3 8.564 9.156 8.436C9.012 8.308 8.94 8.132 8.94 7.908V3.708C8.94 2.548 9.272 1.64 9.936 0.984C10.6 0.328 11.524 0 12.708 0C13.484 0 14.156 0.148 14.724 0.444C15.292 0.74 15.724 1.168 16.02 1.728C16.324 2.288 16.476 2.948 16.476 3.708V7.908C16.476 8.132 16.404 8.308 16.26 8.436C16.116 8.564 15.924 8.628 15.684 8.628C15.444 8.628 15.248 8.564 15.096 8.436C14.952 8.3 14.88 8.124 14.88 7.908V5.952H10.536V7.908C10.536 8.124 10.46 8.3 10.308 8.436C10.164 8.564 9.972 8.628 9.732 8.628ZM14.88 4.716V3.672C14.88 2.872 14.696 2.272 14.328 1.872C13.968 1.464 13.428 1.26 12.708 1.26C11.26 1.26 10.536 2.064 10.536 3.672V4.716H14.88Z" fill="white"/>
<path d="M16.92 8.52C16.312 8.52 15.84 8.36 15.504 8.04C15.168 7.72 15 7.272 15 6.696V0.72C15 0.496 14.9673 0.809233 15.1113 0.681233C15.328 1.02 15.088 0.851847 15.328 0.851847C15.328 1.02 15.4495 0.976657 15.5935 1.11266C15.7455 1.24066 16.4628 3.11224 16.4628 3.32824L16.476 6.696C16.476 6.88 16.64 7.024 16.728 7.128C16.824 7.232 16.952 7.284 17.112 7.284H20.952C21.192 7.284 21.376 7.34 21.504 7.452C21.632 7.556 21.696 7.708 21.696 7.908C21.696 8.1 21.628 8.252 21.492 8.364C21.364 8.468 21.184 8.52 20.952 8.52H16.92Z" fill="white"/>
</svg>
